# xmcd
#
# Track frame offsets: 
#        150
#        12808
#        24992
#        33007
#        43631
#        56953
#        70510
#        78691
#        86690
#        97581
#        107633
#        116213
#        129185
#        145701
#        172413
#        193760
#        209931
#
# Disc length: 2965 seconds
#
# Revision: 0
# Processed by: cddbd v1.5.2PL0 Copyright (c) Steve Scherf et al.
# Submitted via: ExactAudioCopyFreeDBPlugin 1.0
#
DISCID=e80b9311
DTITLE=Barrence Whitfield - Dig Everything!
DYEAR=2018
DGENRE=Rhythm and Blues
TTITLE0=Bloody Mary
TTITLE1=Big Mamou
TTITLE2=Juicy Fruit
TTITLE3=Dig Yourself
TTITLE4=Hug Me Squeeze Me
TTITLE5=Geronimo's Rock
TTITLE6=Shame Shame Shame
TTITLE7=Breadbox
TTITLE8=Wild Cherry
TTITLE9=Frieda Frieda
TTITLE10=Sadie Green
TTITLE11=Stop Twisting My Arm
TTITLE12=Madhouse
TTITLE13=Livin' Proof
TTITLE14=Girl From Outer Space
TTITLE15=The Apology Line
TTITLE16=Rockin' the Mule Back in Kansas
EXTD=
EXTT0=
EXTT1=
EXTT2=
EXTT3=
EXTT4=
EXTT5=
EXTT6=
EXTT7=
EXTT8=
EXTT9=
EXTT10=
EXTT11=
EXTT12=
EXTT13=
EXTT14=
EXTT15=
EXTT16=
PLAYORDER=
